<?xml version="1.0" encoding="UTF-8" standalone="no"?>
<!-- Created with Inkscape (http://www.inkscape.org/) -->

<svg
   width="79.375mm"
   height="79.11187mm"
   viewBox="0 0 79.375 79.11187"
   version="1.1"
   id="svg363"
   xmlns="http://www.w3.org/2000/svg"
   xmlns:svg="http://www.w3.org/2000/svg">
  <defs
     id="defs360" />
  <g
     id="layer1"
     transform="translate(-0.42008937,-0.51488869)">
    <rect
       style="opacity:0.99;fill:#000000;fill-opacity:1;stroke:#000000;stroke-width:2.30983;stroke-dasharray:none;stroke-opacity:1"
       id="rect26703"
       width="77.06517"
       height="3.3515594"
       x="1.5750043"
       y="13.520715" />
    <rect
       style="opacity:0.99;fill:#000000;fill-opacity:1;stroke:#000000;stroke-width:2.90386;stroke-dasharray:none;stroke-opacity:1"
       id="rect26703-8"
       width="74.552498"
       height="5.4772062"
       x="2.7980859"
       y="72.697624" />
    <rect
       style="opacity:0.99;fill:#000000;fill-opacity:0;stroke:#000000;stroke-width:4.60547;stroke-dasharray:none;stroke-opacity:1"
       id="rect26703-4"
       width="61.153854"
       height="50.180614"
       x="9.0334082"
       y="21.357393" />
    <rect
       style="opacity:0.99;fill:#ffc520;fill-opacity:0.992157;stroke:#000000;stroke-width:1.19725;stroke-dasharray:none;stroke-opacity:1"
       id="rect26703-2"
       width="59.093624"
       height="27.942636"
       x="10.212588"
       y="21.590607" />
    <path
       id="text28544"
       style="font-style:normal;font-variant:normal;font-weight:normal;font-stretch:normal;font-size:24.7389px;font-family:'Arial Rounded MT Bold';-inkscape-font-specification:'Arial Rounded MT Bold, Normal';font-variant-ligatures:normal;font-variant-caps:normal;font-variant-numeric:normal;font-variant-east-asian:normal;opacity:0.99;fill:#000000;fill-opacity:0.992157;stroke:#000000;stroke-width:0.31977;stroke-dasharray:none;stroke-opacity:1"
       d="m 39.324731,27.386442 c -1.36096,0 -2.545093,0.205279 -3.551721,0.615983 -1.006627,0.402651 -1.775336,0.982445 -2.306836,1.739429 -0.531499,0.756984 -0.797367,1.622842 -0.797367,2.597257 0,1.022734 0.249504,1.88041 0.748791,2.57297 0.507341,0.684507 1.188116,1.228257 2.041736,1.630908 0.861673,0.394598 1.928462,0.740735 3.200839,1.038696 0.950256,0.217432 1.707467,0.422711 2.271179,0.615983 0.571764,0.193273 1.034729,0.474988 1.389062,0.845427 0.362386,0.362386 0.543636,0.837882 0.543636,1.425753 0,0.740877 -0.334122,1.360547 -1.002522,1.859834 -0.660348,0.491235 -1.522374,0.736906 -2.585372,0.736906 -0.77309,0 -1.397109,-0.120661 -1.872238,-0.362251 -0.475128,-0.249644 -0.845293,-0.56357 -1.111043,-0.942062 -0.257696,-0.378492 -0.499536,-0.849639 -0.72502,-1.41335 -0.18522,-0.475128 -0.410695,-0.833796 -0.676445,-1.075387 -0.257696,-0.24159 -0.575971,-0.362252 -0.954463,-0.362252 -0.467075,0 -0.853605,0.157222 -1.15962,0.47129 -0.297961,0.306014 -0.447001,0.67618 -0.447001,1.111043 0,0.748931 0.250021,1.521989 0.749309,2.319238 0.50734,0.789196 1.16357,1.421397 1.968872,1.896525 1.135475,0.660348 2.576778,0.990637 4.324284,0.990637 1.457596,0 2.718166,-0.241322 3.781164,-0.724503 1.062999,-0.483181 1.868268,-1.151943 2.415873,-2.005563 0.555659,-0.85362 0.833541,-1.81611 0.833541,-2.887162 0,-0.893885 -0.161054,-1.646747 -0.483175,-2.258777 -0.314067,-0.620082 -0.757353,-1.131105 -1.329117,-1.533756 -0.563712,-0.402651 -1.252152,-0.744955 -2.065507,-1.026811 -0.805302,-0.281856 -1.707204,-0.539542 -2.705778,-0.773079 -0.797249,-0.201326 -1.368861,-0.354715 -1.715141,-0.459404 -0.34628,-0.104689 -0.688584,-0.249379 -1.026811,-0.434599 -0.338227,-0.185219 -0.604095,-0.406862 -0.797367,-0.664559 -0.193273,-0.257696 -0.289905,-0.56344 -0.289905,-0.917773 0,-0.571764 0.281715,-1.059275 0.845426,-1.461926 0.571765,-0.410704 1.320795,-0.615983 2.246892,-0.615983 0.998574,0 1.723575,0.189432 2.174544,0.567924 0.450969,0.370439 0.837498,0.889644 1.159619,1.558044 0.249644,0.467075 0.478952,0.805547 0.68833,1.014925 0.217432,0.201326 0.531358,0.301791 0.942062,0.301791 0.450969,0 0.825484,-0.169236 1.123445,-0.507463 0.306015,-0.34628 0.459404,-0.732809 0.459404,-1.159619 0,-0.467075 -0.121178,-0.945888 -0.362769,-1.437122 -0.24159,-0.491234 -0.62377,-0.958548 -1.147217,-1.401465 -0.523446,-0.450969 -1.184025,-0.80912 -1.981274,-1.074869 -0.789196,-0.273803 -1.727141,-0.410828 -2.814299,-0.410828 z m -20.680391,0.30179 c -0.50734,0 -0.92608,0.07695 -1.256254,0.229961 -0.322121,0.144954 -0.559611,0.382444 -0.712618,0.712618 -0.153007,0.32212 -0.229443,0.74086 -0.229443,1.256254 v 13.311332 c 0,0.77309 0.169235,1.333204 0.507462,1.679484 0.34628,0.34628 0.90971,0.519348 1.690853,0.519348 h 9.748242 c 0.563712,0 0.986284,-0.128843 1.26814,-0.38654 0.289909,-0.265749 0.435115,-0.608053 0.435115,-1.02681 0,-0.434863 -0.145206,-0.781517 -0.435115,-1.039213 -0.281856,-0.26575 -0.704428,-0.398426 -1.26814,-0.398426 h -8.359179 v -5.036902 h 7.441406 c 0.555658,0 0.966216,-0.12501 1.231966,-0.374654 0.26575,-0.257696 0.398425,-0.587986 0.398425,-0.990637 0,-0.402651 -0.137025,-0.724759 -0.410827,-0.966349 -0.26575,-0.249644 -0.671959,-0.374654 -1.219564,-0.374654 h -7.441406 v -4.348572 h 8.08116 c 0.571764,0 0.994854,-0.124494 1.268656,-0.374138 0.281856,-0.257696 0.422714,-0.596168 0.422714,-1.014925 0,-0.410704 -0.140858,-0.740993 -0.422714,-0.990637 -0.273802,-0.257696 -0.696892,-0.38654 -1.268656,-0.38654 z m 33.07395,0 c -0.789196,0 -1.365157,0.169236 -1.727543,0.507463 -0.362386,0.338227 -0.543636,0.902174 -0.543636,1.69137 v 13.649812 c 0,0.708666 0.165403,1.248067 0.495577,1.618506 0.330174,0.362386 0.764761,0.543636 1.304313,0.543636 0.515393,0 0.942315,-0.185082 1.280542,-0.555521 0.338227,-0.370439 0.507463,-0.91419 0.507463,-1.630908 v -5.013131 h 3.285587 c 2.198474,0 3.853238,-0.462965 4.964555,-1.389063 1.111317,-0.93415 1.667082,-2.302849 1.667082,-4.106726 0,-0.845567 -0.137025,-1.606611 -0.410828,-2.283065 C 62.2676,30.044152 61.865223,29.472023 61.333724,29.004948 60.810278,28.537873 60.185742,28.203751 59.46097,28.002425 58.728145,27.793047 57.681553,27.688232 56.320593,27.688232 Z m 1.316716,2.693893 h 2.415873 c 1.602551,0 2.661157,0.261519 3.17655,0.784965 0.459022,0.491234 0.688847,1.127784 0.688847,1.908927 0,0.652295 -0.149039,1.179682 -0.447001,1.582333 -0.297962,0.402651 -0.733066,0.692548 -1.30483,0.869714 -0.563711,0.177166 -1.267999,0.265617 -2.113566,0.265617 h -2.415873 z" />
    <path
       id="text28544-4"
       style="font-style:normal;font-variant:normal;font-weight:normal;font-stretch:normal;font-size:10.081px;font-family:'Arial Rounded MT Bold';-inkscape-font-specification:'Arial Rounded MT Bold, Normal';font-variant-ligatures:normal;font-variant-caps:normal;font-variant-numeric:normal;font-variant-east-asian:normal;opacity:0.99;fill:#ffffff;fill-opacity:0.992157;stroke:#000000;stroke-width:0.130298;stroke-dasharray:none;stroke-opacity:1"
       d="m 16.730245,69.642778 c -0.554586,0 -1.036744,0.08379 -1.44694,0.251147 -0.410197,0.164079 -0.723927,0.400533 -0.940511,0.709001 -0.216584,0.308467 -0.324528,0.661263 -0.324528,1.058333 0,0.41676 0.101433,0.7663 0.304891,1.048515 0.206739,0.278933 0.484144,0.50048 0.83199,0.664559 0.351129,0.160797 0.785825,0.301811 1.304313,0.42323 0.387226,0.0886 0.695815,0.172389 0.925525,0.251147 0.232992,0.07876 0.421468,0.193213 0.565857,0.344165 0.147671,0.147671 0.221692,0.341288 0.221692,0.580843 0,0.301905 -0.13639,0.554636 -0.40876,0.758094 -0.269089,0.200175 -0.619999,0.30024 -1.053166,0.30024 -0.315031,0 -0.569131,-0.04883 -0.762744,-0.147278 -0.193613,-0.101729 -0.344911,-0.229722 -0.453203,-0.383956 -0.10501,-0.154234 -0.203188,-0.346482 -0.295072,-0.576192 -0.07548,-0.193613 -0.16766,-0.339769 -0.275952,-0.438216 -0.10501,-0.09845 -0.234373,-0.147278 -0.388607,-0.147278 -0.190331,0 -0.348139,0.06374 -0.472839,0.191719 -0.121418,0.1247 -0.181901,0.275481 -0.181901,0.452686 0,0.305186 0.10195,0.620286 0.305407,0.945162 0.206739,0.321594 0.473861,0.579466 0.802019,0.773079 0.462701,0.269089 1.050065,0.403593 1.762166,0.403593 0.593965,0 1.107824,-0.0987 1.540991,-0.295589 0.433168,-0.196894 0.761289,-0.469158 0.984436,-0.817004 0.226429,-0.347847 0.339514,-0.739707 0.339514,-1.176156 0,-0.364255 -0.06562,-0.671475 -0.196887,-0.920874 -0.127981,-0.252681 -0.308577,-0.46069 -0.541569,-0.624768 -0.22971,-0.164079 -0.51037,-0.303724 -0.841809,-0.418579 -0.328157,-0.114855 -0.695343,-0.220061 -1.102258,-0.315227 -0.324876,-0.08204 -0.558075,-0.144408 -0.699182,-0.187068 -0.141108,-0.04266 -0.280753,-0.101774 -0.418579,-0.17725 -0.137826,-0.07548 -0.245771,-0.165258 -0.324528,-0.270268 -0.07876,-0.10501 -0.118339,-0.229748 -0.118339,-0.374137 0,-0.232992 0.114971,-0.431751 0.344681,-0.59583 0.232992,-0.16736 0.538326,-0.251147 0.915707,-0.251147 0.406915,0 0.701966,0.07728 0.885734,0.23151 0.183768,0.150953 0.341576,0.362733 0.472839,0.635104 0.101729,0.190331 0.195282,0.32809 0.280603,0.413411 0.0886,0.08204 0.216596,0.12299 0.383956,0.12299 0.183768,0 0.335918,-0.06888 0.457336,-0.206706 0.1247,-0.141107 0.187069,-0.298399 0.187069,-0.472322 0,-0.190332 -0.04883,-0.385835 -0.147278,-0.586011 -0.09845,-0.200176 -0.254369,-0.390538 -0.467671,-0.571025 -0.213303,-0.183768 -0.482311,-0.329924 -0.807186,-0.438216 -0.321594,-0.111573 -0.704205,-0.167431 -1.147217,-0.167431 z m 20.998718,0 c -0.443012,0 -0.792552,0.05774 -1.048515,0.172599 -0.252681,0.111573 -0.43276,0.292169 -0.541052,0.541569 -0.10501,0.246118 -0.157613,0.578864 -0.157613,0.998905 v 0.403593 h -0.319877 c -0.449575,0 -0.674378,0.161064 -0.674378,0.482658 0,0.144389 0.05397,0.262616 0.162264,0.3545 0.108292,0.0886 0.262329,0.132809 0.462505,0.132809 h 0.369486 v 3.558956 c 0,0.265807 0.06237,0.469191 0.187069,0.610298 0.127981,0.137826 0.287159,0.206706 0.47749,0.206706 0.200176,0 0.362609,-0.06888 0.487309,-0.206706 0.127981,-0.141107 0.191719,-0.344491 0.191719,-0.610298 v -3.558956 h 0.329696 c 0.239555,0 0.426662,-0.02981 0.561206,-0.08888 0.137826,-0.05907 0.206706,-0.198197 0.206706,-0.418062 0,-0.308468 -0.255987,-0.463021 -0.767912,-0.463021 H 37.32537 v -0.319877 c 0,-0.265807 0.03444,-0.469191 0.103353,-0.610299 0.06891,-0.144389 0.224836,-0.216524 0.467672,-0.216524 0.0886,0 0.197063,0.0098 0.325045,0.02946 0.127981,0.01969 0.218279,0.02945 0.270784,0.02945 0.111574,0 0.208382,-0.04421 0.290422,-0.132808 0.08204,-0.0886 0.12299,-0.195178 0.12299,-0.319877 0,-0.383944 -0.392377,-0.576192 -1.176673,-0.576192 z m 25.124048,0 c -0.554586,0 -1.03726,0.08379 -1.447457,0.251147 -0.410196,0.164079 -0.72341,0.400533 -0.939994,0.709001 -0.216584,0.308467 -0.325045,0.661263 -0.325045,1.058333 0,0.41676 0.10195,0.7663 0.305408,1.048515 0.206739,0.278933 0.484144,0.50048 0.83199,0.664559 0.351129,0.160797 0.785825,0.301811 1.304314,0.42323 0.387225,0.0886 0.695814,0.172389 0.925524,0.251147 0.232992,0.07876 0.421468,0.193213 0.565857,0.344165 0.147671,0.147671 0.221692,0.341288 0.221692,0.580843 0,0.301905 -0.13639,0.554636 -0.40876,0.758094 -0.269089,0.200175 -0.619998,0.30024 -1.053166,0.30024 -0.315031,0 -0.569648,-0.04883 -0.763261,-0.147278 -0.193613,-0.101729 -0.344394,-0.229722 -0.452685,-0.383956 -0.105011,-0.154234 -0.203706,-0.346482 -0.29559,-0.576192 -0.07548,-0.193613 -0.167143,-0.339769 -0.275435,-0.438216 -0.10501,-0.09845 -0.23489,-0.147278 -0.389124,-0.147278 -0.190331,0 -0.347622,0.06374 -0.472322,0.191719 -0.121418,0.1247 -0.181901,0.275481 -0.181901,0.452686 0,0.305186 0.101433,0.620286 0.304891,0.945162 0.206739,0.321594 0.474378,0.579466 0.802535,0.773079 0.462701,0.269089 1.050065,0.403593 1.762166,0.403593 0.593965,0 1.107307,-0.0987 1.540475,-0.295589 0.433167,-0.196894 0.761289,-0.469158 0.984436,-0.817004 0.226428,-0.347847 0.340031,-0.739707 0.340031,-1.176156 0,-0.364255 -0.06562,-0.671475 -0.196888,-0.920874 -0.127981,-0.252681 -0.308577,-0.46069 -0.541569,-0.624768 -0.22971,-0.164079 -0.51037,-0.303724 -0.841809,-0.418579 -0.328157,-0.114855 -0.69586,-0.220061 -1.102775,-0.315227 -0.324876,-0.08204 -0.557558,-0.144408 -0.698665,-0.187068 -0.141108,-0.04266 -0.280753,-0.101774 -0.418579,-0.17725 -0.137826,-0.07548 -0.246287,-0.165258 -0.325045,-0.270268 -0.07876,-0.10501 -0.117822,-0.229748 -0.117822,-0.374137 0,-0.232992 0.114455,-0.431751 0.344165,-0.59583 0.232991,-0.16736 0.538325,-0.251147 0.915706,-0.251147 0.406915,0 0.702483,0.07728 0.886251,0.23151 0.183768,0.150953 0.34106,0.362733 0.472322,0.635104 0.101729,0.190331 0.195283,0.32809 0.280604,0.413411 0.0886,0.08204 0.216595,0.12299 0.383955,0.12299 0.183768,0 0.336435,-0.06888 0.457854,-0.206706 0.124699,-0.141107 0.187068,-0.298399 0.187068,-0.472322 0,-0.190332 -0.04935,-0.385835 -0.147794,-0.586011 -0.09845,-0.200176 -0.25437,-0.390538 -0.467672,-0.571025 -0.213302,-0.183768 -0.48231,-0.329924 -0.807186,-0.438216 -0.321594,-0.111573 -0.703688,-0.167431 -1.1467,-0.167431 z m -14.762406,0.123506 c -0.315031,0 -0.543089,0.07025 -0.684196,0.211357 -0.141108,0.141107 -0.211357,0.369165 -0.211357,0.684196 v 5.552632 c 0,0.29206 0.06374,0.513607 0.19172,0.664559 0.127981,0.150953 0.308577,0.226343 0.541569,0.226343 0.216583,0 0.392038,-0.07214 0.526583,-0.216524 0.134544,-0.144389 0.202054,-0.369191 0.202054,-0.674378 v -2.318721 h 0.511597 c 0.259244,0 0.47428,0.03444 0.644922,0.103353 0.170642,0.06891 0.338216,0.196906 0.502295,0.383956 0.16736,0.187049 0.355836,0.459829 0.565857,0.817521 l 0.586011,0.974617 c 0.137826,0.22971 0.24577,0.403279 0.324527,0.521416 0.08204,0.118136 0.178849,0.214945 0.290422,0.290421 0.111574,0.07876 0.249333,0.118339 0.413412,0.118339 0.137826,0 0.259308,-0.02793 0.364318,-0.08372 0.105011,-0.0525 0.187429,-0.12464 0.246497,-0.216524 0.06235,-0.09517 0.09302,-0.190605 0.09302,-0.285771 0,-0.09188 -0.05209,-0.258941 -0.157097,-0.501778 -0.101729,-0.246118 -0.246515,-0.520267 -0.433565,-0.822172 -0.183768,-0.305186 -0.393663,-0.592357 -0.629936,-0.861446 -0.236273,-0.269089 -0.483863,-0.472473 -0.743107,-0.610299 0.616936,-0.134544 1.076306,-0.362602 1.378211,-0.684196 0.305186,-0.321594 0.457853,-0.751665 0.457853,-1.289843 0,-0.262526 -0.04609,-0.510116 -0.137976,-0.743107 -0.0886,-0.236274 -0.219851,-0.442913 -0.393775,-0.620118 -0.173923,-0.177205 -0.374051,-0.313595 -0.60048,-0.40876 -0.18705,-0.08532 -0.396944,-0.141179 -0.629936,-0.167432 -0.232991,-0.02953 -0.513651,-0.04393 -0.841809,-0.04393 z m 5.901965,0 c -0.239555,0 -0.423406,0.05397 -0.551388,0.162264 -0.124699,0.108292 -0.187068,0.255818 -0.187068,0.442867 0,0.180487 0.061,0.326643 0.182418,0.438216 0.121418,0.108292 0.306638,0.162264 0.556038,0.162264 h 1.594735 v 5.242574 c 0,0.298623 0.06751,0.521539 0.202055,0.66921 0.137826,0.147671 0.315166,0.221692 0.53175,0.221692 0.213302,0 0.386871,-0.07214 0.521415,-0.216524 0.134545,-0.147671 0.202055,-0.372473 0.202055,-0.674378 v -5.242574 h 1.594735 c 0.249399,0 0.436506,-0.05397 0.561206,-0.162264 0.1247,-0.111573 0.187069,-0.257729 0.187069,-0.438216 0,-0.180486 -0.06237,-0.326642 -0.187069,-0.438216 -0.121418,-0.111573 -0.308525,-0.166915 -0.561206,-0.166915 z m -5.335592,1.097608 h 1.348755 c 0.502081,0 0.838082,0.03581 1.008724,0.108003 0.180487,0.07548 0.321501,0.190448 0.42323,0.344682 0.101729,0.150952 0.152962,0.326407 0.152962,0.526583 0,0.255963 -0.06425,0.457977 -0.192236,0.605648 -0.1247,0.144389 -0.306665,0.247708 -0.54622,0.310058 -0.239555,0.05907 -0.535122,0.08837 -0.886251,0.08837 h -1.308964 z m -25.547277,0.77773 c -0.400352,0 -0.766169,0.06562 -1.097608,0.196887 -0.331439,0.127981 -0.613985,0.311833 -0.846977,0.551388 -0.232991,0.239554 -0.411701,0.528095 -0.536401,0.866097 -0.1247,0.338002 -0.187069,0.710329 -0.187069,1.117244 0,0.403634 0.061,0.773222 0.182418,1.107943 0.1247,0.331439 0.304779,0.619979 0.541052,0.866097 0.239555,0.242836 0.522101,0.429943 0.846977,0.561206 0.324876,0.131263 0.690693,0.196887 1.097608,0.196887 0.410196,0 0.779268,-0.06426 1.107425,-0.192236 0.328158,-0.131263 0.610704,-0.317853 0.846977,-0.56069 0.236273,-0.242836 0.416353,-0.533262 0.541052,-0.871264 0.1247,-0.338002 0.187069,-0.707591 0.187069,-1.107943 0,-0.403633 -0.06237,-0.772705 -0.187069,-1.107426 -0.121418,-0.33472 -0.300128,-0.62326 -0.536401,-0.866097 -0.236273,-0.242836 -0.520189,-0.429943 -0.851628,-0.561206 -0.331438,-0.131263 -0.700511,-0.196887 -1.107425,-0.196887 z m 4.297412,0 c -0.190332,0 -0.344885,0.06562 -0.463021,0.196887 -0.114855,0.131263 -0.172083,0.322994 -0.172083,0.575676 v 3.844726 c 0,0.278934 0.06374,0.490198 0.19172,0.634587 0.131263,0.141107 0.298837,0.211873 0.502295,0.211873 0.206739,0 0.372427,-0.07077 0.497127,-0.211873 0.127981,-0.144389 0.19172,-0.355653 0.19172,-0.634587 v -1.816426 c 0,-0.564431 0.0694,-0.997758 0.207222,-1.299663 0.141108,-0.301904 0.431534,-0.452685 0.871265,-0.452685 0.219865,0 0.380412,0.06048 0.482141,0.181901 0.101729,0.118136 0.164098,0.270803 0.187069,0.457853 0.02297,0.18705 0.03462,0.449547 0.03462,0.787549 v 2.141471 c 0,0.282215 0.06237,0.493479 0.187068,0.634587 0.127982,0.141107 0.29367,0.211873 0.497128,0.211873 0.21002,0 0.378964,-0.07077 0.506946,-0.211873 0.127981,-0.141108 0.191719,-0.352372 0.191719,-0.634587 V 74.47194 c 0,-0.574275 0.04935,-0.974532 0.147795,-1.20096 0.0886,-0.177205 0.211454,-0.318737 0.368969,-0.423747 0.160797,-0.10501 0.330258,-0.157096 0.507463,-0.157096 0.219865,0 0.383668,0.05911 0.49196,0.17725 0.108291,0.118136 0.173916,0.263776 0.196887,0.437699 0.02625,0.173924 0.03927,0.405236 0.03927,0.694015 v 2.25981 c 0,0.278934 0.06425,0.490198 0.192236,0.634587 0.131263,0.141107 0.298321,0.211873 0.501778,0.211873 0.210021,0 0.378965,-0.07077 0.506946,-0.211873 0.127982,-0.141108 0.192237,-0.352372 0.192237,-0.634587 v -2.623612 c 0,-0.52177 -0.05723,-0.904381 -0.172083,-1.147217 -0.131263,-0.269089 -0.330022,-0.475728 -0.595829,-0.620117 -0.265808,-0.14439 -0.582277,-0.216525 -0.949813,-0.216525 -0.315031,0 -0.602202,0.06699 -0.861446,0.201539 -0.259244,0.131262 -0.502209,0.334646 -0.728638,0.610298 -0.157515,-0.27237 -0.357644,-0.475754 -0.60048,-0.610298 -0.242836,-0.134545 -0.533263,-0.201539 -0.871265,-0.201539 -0.324875,0 -0.620443,0.06563 -0.886251,0.196888 -0.265807,0.131263 -0.515283,0.336016 -0.748274,0.614949 v -0.127641 c 0,-0.216583 -0.06237,-0.385527 -0.187069,-0.506945 -0.121418,-0.1247 -0.273568,-0.187069 -0.457336,-0.187069 z m 11.931571,0 c -0.111573,0 -0.220034,0.0293 -0.325045,0.08837 -0.101728,0.05907 -0.181744,0.137714 -0.240812,0.236161 -0.05907,0.09845 -0.08888,0.205539 -0.08888,0.320394 0,0.108292 0.05072,0.28186 0.152445,0.521415 l 1.654163,4.164604 -0.12299,0.30024 c -0.09188,0.219865 -0.173785,0.385554 -0.24598,0.497127 -0.06891,0.114855 -0.148076,0.195387 -0.236678,0.241329 -0.0886,0.04594 -0.209568,0.06873 -0.363802,0.06873 -0.06235,0 -0.136371,-0.0098 -0.221692,-0.02946 -0.06891,-0.01969 -0.139679,-0.02946 -0.211873,-0.02946 -0.183768,0 -0.322897,0.04095 -0.418063,0.12299 -0.09188,0.08532 -0.137976,0.204918 -0.137976,0.359152 0,0.226428 0.09818,0.38235 0.295073,0.467671 0.196894,0.08532 0.492462,0.128158 0.88625,0.128158 0.403634,0 0.723359,-0.06237 0.959632,-0.187069 0.239555,-0.121418 0.431803,-0.297389 0.576192,-0.527099 0.144389,-0.229711 0.291915,-0.54618 0.442867,-0.949813 l 1.752348,-4.587834 c 0.04266,-0.118137 0.07899,-0.234478 0.10852,-0.349333 0.02954,-0.114855 0.05095,-0.203267 0.06408,-0.265616 0,-0.101729 -0.02656,-0.198538 -0.07906,-0.290422 -0.04922,-0.09188 -0.121358,-0.164019 -0.216524,-0.216524 -0.09188,-0.05579 -0.188693,-0.08372 -0.290422,-0.08372 -0.141107,0 -0.250937,0.02467 -0.329695,0.0739 -0.07548,0.04922 -0.147611,0.144147 -0.216524,0.285254 -0.06891,0.141108 -0.14619,0.336611 -0.231511,0.586011 l -1.07797,3.076298 -1.136882,-3.307809 c -0.07548,-0.22971 -0.162519,-0.405164 -0.260966,-0.526582 -0.09845,-0.1247 -0.244603,-0.187069 -0.438216,-0.187069 z m -16.228983,0.994254 c 0.406914,0 0.729895,0.152667 0.969449,0.457854 0.242837,0.305186 0.364319,0.731486 0.364319,1.279508 0,0.54146 -0.121482,0.96639 -0.364319,1.274858 -0.239554,0.305186 -0.562535,0.457853 -0.969449,0.457853 -0.269089,0 -0.503658,-0.06888 -0.703833,-0.206706 -0.196895,-0.141107 -0.349562,-0.342605 -0.457854,-0.605131 -0.10501,-0.262526 -0.157613,-0.569746 -0.157613,-0.920874 0,-0.35441 0.05449,-0.664368 0.162781,-0.930176 0.108292,-0.265807 0.262328,-0.465935 0.462504,-0.60048 0.200176,-0.137826 0.431489,-0.206706 0.694015,-0.206706 z" />
    <g
       style="fill:#000000;stroke-width:0.140614;stroke-dasharray:none"
       id="g476"
       transform="matrix(0.04278386,0,0,0.04278462,57.521922,-1.6602283)">
      <g
         id="g464">
	<path
   d="M 273.11293,303.73622 H 260.457 c -1.38668,-5.65529 -5.84606,-10.11419 -11.50136,-11.50136 V 191.21357 c 6.8532,-1.68055 11.95413,-7.87279 11.95413,-15.23703 0,-8.65129 -7.03849,-15.68978 -15.6898,-15.68978 -8.65129,0 -15.68978,7.03849 -15.68978,15.68978 0,7.36424 5.10093,13.55598 11.95412,15.23703 v 101.02179 c -5.65529,1.38667 -10.11418,5.84607 -11.50135,11.50136 h -12.65593 c -6.45423,0 -11.70508,5.25085 -11.70508,11.70507 v 11.95413 c 0,2.06308 1.67258,3.73566 3.73566,3.73566 h 71.72473 c 2.06309,0 3.73567,-1.67258 3.73567,-3.73566 v -11.95413 c 0,-6.45472 -5.25085,-11.70557 -11.70508,-11.70557 z M 237.00152,175.97654 c 0,-4.53161 3.68685,-8.21845 8.21845,-8.21845 4.53161,0 8.21847,3.68684 8.21847,8.21845 0,4.53161 -3.68686,8.21846 -8.21847,8.21846 -4.5316,0 -8.21845,-3.68685 -8.21845,-8.21846 z m 8.21845,123.27688 c 3.18578,0 5.94818,1.826 7.31145,4.4828 h -14.62238 c 1.36277,-2.6568 4.12516,-4.4828 7.31093,-4.4828 z m 32.12671,24.40634 h -64.2534 v -8.21846 c 0,-2.33454 1.89921,-4.23375 4.23375,-4.23375 h 55.7859 c 2.33454,0 4.23375,1.89921 4.23375,4.23375 z"
   id="path456"
   style="stroke-width:0.0700382" />

	<path
   d="m 245.2251,50.838759 c -66.57481,0 -120.73741,54.162591 -120.73741,120.737391 0,26.52646 8.4468,51.6935 24.4268,72.78023 15.45164,20.38914 37.40452,35.6227 61.81549,42.89308 2.72983,0.81249 5.60414,-0.74162 6.418,-3.47214 0.81317,-2.73121 -0.74094,-5.60414 -3.47215,-6.418 -22.323,-6.64916 -42.40118,-20.58246 -56.53743,-39.23588 -14.60889,-19.27808 -22.33127,-42.28973 -22.33127,-66.54729 0,-60.88466 49.5333,-110.417955 110.41797,-110.417955 60.88468,0 110.41797,49.533295 110.41797,110.417955 0,24.25756 -7.72238,47.26921 -22.33126,66.54729 -14.13557,18.65273 -34.21444,32.58672 -56.53744,39.23588 -2.73121,0.81386 -4.28532,3.68679 -3.47215,6.418 0.66733,2.23931 2.71952,3.68816 4.94301,3.68816 0.48708,0 0.98379,-0.0702 1.475,-0.21602 24.41097,-7.27038 46.36385,-22.50394 61.81548,-42.89308 15.97999,-21.08673 24.42679,-46.25377 24.42679,-72.78023 0,-66.5748 -54.16259,-120.737391 -120.7374,-120.737391 z"
   id="path458"
   style="stroke-width:0.0967371" />

	<path
   d="m 245.2251,127.20258 c 24.46739,0 44.37358,19.90619 44.37358,44.37357 0,12.54156 -5.39294,24.57127 -14.79601,33.005 -2.12168,1.9029 -2.29917,5.16453 -0.39627,7.28621 1.01888,1.13651 2.42782,1.71509 3.84296,1.71509 1.22664,0 2.45809,-0.43479 3.44325,-1.31883 11.58254,-10.38823 18.2255,-25.21863 18.2255,-40.68747 0,-30.15752 -24.53549,-54.693 -54.69301,-54.693 -30.15752,0 -54.69301,24.53548 -54.69301,54.693 0,15.46884 6.64297,30.29924 18.22619,40.68747 2.12167,1.90291 5.3833,1.72541 7.28621,-0.39626 1.9029,-2.12099 1.72541,-5.38331 -0.39627,-7.28621 -9.40376,-8.43373 -14.79669,-20.46344 -14.79669,-33.005 0,-24.46738 19.90619,-44.37357 44.37357,-44.37357 z"
   id="path460"
   style="stroke-width:0.0967371" />

	<path
   d="m 278.25005,252.37734 c 0.69003,0 1.39175,-0.13966 2.06457,-0.43342 31.96893,-13.97802 52.62569,-45.52454 52.62569,-80.36777 0,-48.3665 -39.3487,-87.715196 -87.71521,-87.715196 -48.36651,0 -87.7152,39.348696 -87.7152,87.715196 0,34.84323 20.65675,66.38975 52.62568,80.36777 2.61082,1.13995 5.65299,-0.0495 6.795,-2.66104 1.14133,-2.61082 -0.0495,-5.65299 -2.66035,-6.79431 -28.21196,-12.33517 -46.4409,-40.16944 -46.4409,-70.91242 0,-42.67637 34.7194,-77.395759 77.39577,-77.395759 42.67637,0 77.39577,34.719389 77.39577,77.395759 0,30.74298 -18.22894,58.57725 -46.4409,70.9131 -2.61082,1.14133 -3.80168,4.1835 -2.66035,6.79432 0.84757,1.93868 2.74222,3.09377 4.73043,3.09377 z"
   id="path462"
   style="stroke-width:0.0967371" />

</g>
    </g>
    <path
       style="fill:none;fill-rule:evenodd;stroke:#000000;stroke-width:1.39316;stroke-linecap:butt;stroke-linejoin:miter;stroke-dasharray:none;stroke-opacity:1"
       d="m 39.59249,49.302195 v 5.738958"
       id="path2162" />
    <ellipse
       style="opacity:0.99;fill:#000000;fill-opacity:0;stroke:#000000;stroke-width:2.34789;stroke-dasharray:none;stroke-opacity:1"
       id="path2216"
       cx="39.531185"
       cy="57.610153"
       rx="3.2772751"
       ry="3.2463596" />
  </g>
</svg>
